<?xml version="1.0" encoding="UTF-8"?>
<!DOCTYPE svg PUBLIC "-//W3C//DTD SVG 1.1//EN" "http://www.w3.org/Graphics/SVG/1.1/DTD/svg11.dtd">
<svg xmlns="http://www.w3.org/2000/svg" version="1.1" width="714px" height="627px" style="shape-rendering:geometricPrecision; text-rendering:geometricPrecision; image-rendering:optimizeQuality; fill-rule:evenodd; clip-rule:evenodd" xmlns:xlink="http://www.w3.org/1999/xlink">
<g><path style="opacity:0.984" fill="#fb0163" d="M 582.5,41.5 C 537.283,34.3532 492.283,26.6865 447.5,18.5C 495.164,10.9437 540.164,18.6103 582.5,41.5 Z"/></g>
<g><path style="opacity:0.989" fill="#f60368" d="M 447.5,18.5 C 492.283,26.6865 537.283,34.3532 582.5,41.5C 588.435,44.1355 594.102,47.3022 599.5,51C 602.355,53.0308 605.022,55.1975 607.5,57.5C 545.44,47.6012 483.44,37.2679 421.5,26.5C 419.97,26.3601 418.97,25.6935 418.5,24.5C 428.002,21.733 437.668,19.733 447.5,18.5 Z"/></g>
<g><path style="opacity:0.993" fill="#f1056e" d="M 418.5,24.5 C 418.97,25.6935 419.97,26.3601 421.5,26.5C 483.44,37.2679 545.44,47.6012 607.5,57.5C 613.083,60.7469 618.083,64.7469 622.5,69.5C 548.218,57.6758 474.218,45.0092 400.5,31.5C 406.5,29.1667 412.5,26.8333 418.5,24.5 Z"/></g>
<g><path style="opacity:0.995" fill="#eb0773" d="M 400.5,31.5 C 474.218,45.0092 548.218,57.6758 622.5,69.5C 628.463,73.7949 633.796,78.7949 638.5,84.5C 552.534,69.9501 466.534,55.6167 380.5,41.5C 386.789,37.6124 393.456,34.2791 400.5,31.5 Z"/></g>
<g><path style="opacity:0.996" fill="#e60a79" d="M 380.5,41.5 C 466.534,55.6167 552.534,69.9501 638.5,84.5C 642.513,88.5149 646.179,92.8482 649.5,97.5C 649.265,98.0967 648.765,98.4301 648,98.5C 553.607,82.6299 459.44,66.2965 365.5,49.5C 370.368,46.5662 375.368,43.8995 380.5,41.5 Z"/></g>
<g><path style="opacity:0.998" fill="#e20c7d" d="M 365.5,49.5 C 459.44,66.2965 553.607,82.6299 648,98.5C 648.765,98.4301 649.265,98.0967 649.5,97.5C 651.522,99.5313 653.189,101.865 654.5,104.5C 555.417,89.0416 456.417,72.3749 357.5,54.5C 360.131,52.8474 362.797,51.1807 365.5,49.5 Z"/></g>
<g><path style="opacity:0.996" fill="#dd0d82" d="M 357.5,54.5 C 456.417,72.3749 555.417,89.0416 654.5,104.5C 658.575,108.976 661.908,113.976 664.5,119.5C 556.608,100.74 448.608,82.4068 340.5,64.5C 345.967,60.9294 351.633,57.5961 357.5,54.5 Z"/></g>
<g><path style="opacity:0.997" fill="#d80f87" d="M 340.5,64.5 C 448.608,82.4068 556.608,100.74 664.5,119.5C 666.588,121.336 667.921,123.669 668.5,126.5C 667.726,127.147 666.726,127.48 665.5,127.5C 553.326,108.694 441.326,89.6936 329.5,70.5C 333.167,68.5 336.833,66.5 340.5,64.5 Z"/></g>
<g><path style="opacity:0.996" fill="#d3118c" d="M 329.5,70.5 C 441.326,89.6936 553.326,108.694 665.5,127.5C 666.726,127.48 667.726,127.147 668.5,126.5C 671.323,130.136 673.656,134.136 675.5,138.5C 556.168,118.5 436.835,98.5002 317.5,78.5C 321.205,75.4744 325.205,72.8077 329.5,70.5 Z"/></g>
<g><path style="opacity:0.999" fill="#d01390" d="M 317.5,78.5 C 436.835,98.5002 556.168,118.5 675.5,138.5C 676.892,141.007 677.892,143.673 678.5,146.5C 554.967,125.912 431.634,104.912 308.5,83.5C 311.008,81.0764 314.008,79.4097 317.5,78.5 Z"/></g>
<g><path style="opacity:0.998" fill="#cc1493" d="M 308.5,83.5 C 431.634,104.912 554.967,125.912 678.5,146.5C 679.87,148.25 680.87,150.25 681.5,152.5C 680.258,153.043 678.925,153.377 677.5,153.5C 551.201,132.569 425.201,110.902 299.5,88.5C 302.331,86.5832 305.331,84.9166 308.5,83.5 Z"/></g>
<g><path style="opacity:0.998" fill="#c91697" d="M 299.5,88.5 C 425.201,110.902 551.201,132.569 677.5,153.5C 678.925,153.377 680.258,153.043 681.5,152.5C 682.784,155.402 683.784,158.402 684.5,161.5C 552.579,139.902 420.912,117.569 289.5,94.5C 292.549,92.1373 295.882,90.1373 299.5,88.5 Z"/></g>
<g><path style="opacity:0.998" fill="#c5179a" d="M 289.5,94.5 C 420.912,117.569 552.579,139.902 684.5,161.5C 685.738,163.214 686.405,165.214 686.5,167.5C 686.53,168.497 686.03,169.164 685,169.5C 549.828,146.444 414.661,123.444 279.5,100.5C 282.466,98.0116 285.799,96.0116 289.5,94.5 Z"/></g>
<g><path style="opacity:0.998" fill="#c0199f" d="M 279.5,100.5 C 414.661,123.444 549.828,146.444 685,169.5C 686.03,169.164 686.53,168.497 686.5,167.5C 688.279,171.594 689.612,175.927 690.5,180.5C 689.423,181.018 688.256,181.352 687,181.5C 545.984,157.748 405.151,133.748 264.5,109.5C 269.233,106.11 274.233,103.11 279.5,100.5 Z"/></g>
<g><path style="opacity:0.998" fill="#ba1ca6" d="M 264.5,109.5 C 405.151,133.748 545.984,157.748 687,181.5C 688.256,181.352 689.423,181.018 690.5,180.5C 691.755,185.106 692.755,189.773 693.5,194.5C 544.947,169.686 396.613,144.353 248.5,118.5C 253.502,114.997 258.835,111.997 264.5,109.5 Z"/></g>
<g><path style="opacity:0.999" fill="#b51eab" d="M 248.5,118.5 C 396.613,144.353 544.947,169.686 693.5,194.5C 694.259,198.477 694.925,202.477 695.5,206.5C 622.256,194.654 549.09,182.32 476,169.5C 475.235,169.57 474.735,169.903 474.5,170.5C 467.579,163.706 459.246,159.539 449.5,158C 433.17,157.5 416.837,157.333 400.5,157.5C 345.359,147.698 290.026,138.198 234.5,129C 233.584,128.722 232.918,128.222 232.5,127.5C 237.833,124.5 243.167,121.5 248.5,118.5 Z"/></g>
<g><path style="opacity:0.993" fill="#b020b0" d="M 232.5,127.5 C 232.918,128.222 233.584,128.722 234.5,129C 290.026,138.198 345.359,147.698 400.5,157.5C 383.833,157.5 367.167,157.5 350.5,157.5C 307.047,149.647 263.38,142.313 219.5,135.5C 223.63,132.597 227.963,129.93 232.5,127.5 Z"/></g>
<g><path style="opacity:0.994" fill="#ab22b5" d="M 219.5,135.5 C 263.38,142.313 307.047,149.647 350.5,157.5C 332.164,157.333 313.83,157.5 295.5,158C 293.753,158.352 292.086,158.852 290.5,159.5C 262.033,154.088 233.367,149.088 204.5,144.5C 209.299,141.263 214.299,138.263 219.5,135.5 Z"/></g>
<g><path style="opacity:0.995" fill="#a525bc" d="M 204.5,144.5 C 233.367,149.088 262.033,154.088 290.5,159.5C 283.865,162.15 277.865,165.816 272.5,170.5C 272.03,169.307 271.03,168.64 269.5,168.5C 242.109,164.046 214.775,159.379 187.5,154.5C 192.994,150.918 198.661,147.585 204.5,144.5 Z"/></g>
<g><path style="opacity:1" fill="#fcfcfe" d="M 350.5,157.5 C 367.167,157.5 383.833,157.5 400.5,157.5C 416.837,157.333 433.17,157.5 449.5,158C 459.246,159.539 467.579,163.706 474.5,170.5C 477.423,174.027 480.09,177.694 482.5,181.5C 483.833,185.167 485.167,188.833 486.5,192.5C 486.5,196.5 486.5,200.5 486.5,204.5C 486.5,206.167 486.5,207.833 486.5,209.5C 485.182,213.411 483.849,217.411 482.5,221.5C 480.533,224.477 478.533,227.477 476.5,230.5C 472.978,233.75 469.311,236.75 465.5,239.5C 460.366,241.823 455.033,243.656 449.5,245C 440.84,245.5 432.173,245.666 423.5,245.5C 398.5,245.5 373.5,245.5 348.5,245.5C 348.5,246.5 348.5,247.5 348.5,248.5C 348.5,252.167 348.5,255.833 348.5,259.5C 348.5,263.5 348.5,267.5 348.5,271.5C 348.5,279.167 348.5,286.833 348.5,294.5C 372.169,294.333 395.836,294.5 419.5,295C 425.182,296.017 430.515,297.85 435.5,300.5C 441.5,304.5 446.5,309.5 450.5,315.5C 454.146,323.055 456.146,331.055 456.5,339.5C 455.833,343.5 455.167,347.5 454.5,351.5C 452.596,356.856 449.929,361.856 446.5,366.5C 442.033,370.9 437.033,374.566 431.5,377.5C 427.04,379.449 422.373,380.783 417.5,381.5C 394.5,381.5 371.5,381.5 348.5,381.5C 348.5,385.167 348.5,388.833 348.5,392.5C 348.5,397.833 348.5,403.167 348.5,408.5C 348.5,413.167 348.5,417.833 348.5,422.5C 348.5,427.167 348.5,431.833 348.5,436.5C 348.5,441.167 348.5,445.833 348.5,450.5C 348.5,455.167 348.5,459.833 348.5,464.5C 348.5,469.833 348.5,475.167 348.5,480.5C 347.503,484.479 346.503,488.479 345.5,492.5C 343.098,496.965 340.432,501.298 337.5,505.5C 331.236,511.127 324.236,515.46 316.5,518.5C 302.713,521.681 290.046,519.348 278.5,511.5C 271.824,506.478 266.824,500.145 263.5,492.5C 263.396,490.297 262.73,488.297 261.5,486.5C 261.326,484.139 260.993,481.806 260.5,479.5C 260.5,474.833 260.5,470.167 260.5,465.5C 260.5,460.167 260.5,454.833 260.5,449.5C 260.5,444.833 260.5,440.167 260.5,435.5C 260.5,433.167 260.5,430.833 260.5,428.5C 260.5,426.167 260.5,423.833 260.5,421.5C 260.5,416.833 260.5,412.167 260.5,407.5C 260.5,402.833 260.5,398.167 260.5,393.5C 260.5,388.167 260.5,382.833 260.5,377.5C 260.5,372.833 260.5,368.167 260.5,363.5C 260.5,359.167 260.5,354.833 260.5,350.5C 260.5,345.5 260.5,340.5 260.5,335.5C 260.5,330.5 260.5,325.5 260.5,320.5C 260.5,315.5 260.5,310.5 260.5,305.5C 260.5,297.5 260.5,289.5 260.5,281.5C 260.5,277.5 260.5,273.5 260.5,269.5C 260.5,265.167 260.5,260.833 260.5,256.5C 260.5,252.5 260.5,248.5 260.5,244.5C 260.5,239.833 260.5,235.167 260.5,230.5C 260.5,226.5 260.5,222.5 260.5,218.5C 260.5,214.167 260.5,209.833 260.5,205.5C 260.5,201.5 260.5,197.5 260.5,193.5C 261.946,189.175 263.613,184.842 265.5,180.5C 267.801,177.19 270.134,173.857 272.5,170.5C 277.865,165.816 283.865,162.15 290.5,159.5C 292.086,158.852 293.753,158.352 295.5,158C 313.83,157.5 332.164,157.333 350.5,157.5 Z"/></g>
<g><path style="opacity:0.995" fill="#9f28c2" d="M 187.5,154.5 C 214.775,159.379 242.109,164.046 269.5,168.5C 271.03,168.64 272.03,169.307 272.5,170.5C 270.134,173.857 267.801,177.19 265.5,180.5C 234.52,174.726 203.52,169.059 172.5,163.5C 176.995,159.749 181.995,156.749 187.5,154.5 Z"/></g>
<g><path style="opacity:0.997" fill="#982ac9" d="M 172.5,163.5 C 203.52,169.059 234.52,174.726 265.5,180.5C 263.613,184.842 261.946,189.175 260.5,193.5C 224.684,187.476 189.017,181.143 153.5,174.5C 159.334,170.079 165.668,166.412 172.5,163.5 Z"/></g>
<g><path style="opacity:0.998" fill="#b020b0" d="M 695.5,206.5 C 695.704,209.518 696.037,212.518 696.5,215.5C 625.807,203.718 555.14,191.718 484.5,179.5C 483.287,179.747 482.62,180.414 482.5,181.5C 480.09,177.694 477.423,174.027 474.5,170.5C 474.735,169.903 475.235,169.57 476,169.5C 549.09,182.32 622.256,194.654 695.5,206.5 Z"/></g>
<g><path style="opacity:1" fill="#c05cc9" d="M 449.5,172.5 C 412.33,172.168 375.33,172.502 338.5,173.5C 337.957,173.44 337.624,173.107 337.5,172.5C 374.998,171.17 412.331,171.17 449.5,172.5 Z"/></g>
<g><path style="opacity:1" fill="#a724ba" d="M 449.5,172.5 C 463.324,176.319 470.99,185.319 472.5,199.5C 430.073,192.012 387.573,184.679 345,177.5C 343.93,177.528 343.097,177.861 342.5,178.5C 340.937,177.055 339.604,175.389 338.5,173.5C 375.33,172.502 412.33,172.168 449.5,172.5 Z"/></g>
<g><path style="opacity:0.997" fill="#922ccf" d="M 153.5,174.5 C 189.017,181.143 224.684,187.476 260.5,193.5C 260.5,197.5 260.5,201.5 260.5,205.5C 219.277,198.687 178.277,191.353 137.5,183.5C 142.537,179.981 147.87,176.981 153.5,174.5 Z"/></g>
<g><path style="opacity:0.999" fill="#ab22b6" d="M 696.5,215.5 C 696.5,219.5 696.5,223.5 696.5,227.5C 626.535,215.617 556.535,203.95 486.5,192.5C 485.167,188.833 483.833,185.167 482.5,181.5C 482.62,180.414 483.287,179.747 484.5,179.5C 555.14,191.718 625.807,203.718 696.5,215.5 Z"/></g>
<g><path style="opacity:1" fill="#9b2bc7" d="M 333.5,195.5 C 333.5,198.833 333.5,202.167 333.5,205.5C 314.098,202.378 294.764,199.044 275.5,195.5C 279.101,180.236 288.768,172.236 304.5,171.5C 320.232,172.236 329.899,180.236 333.5,195.5 Z"/></g>
<g><path style="opacity:1" fill="#9e28c2" d="M 472.5,199.5 C 473.087,207.062 471.087,213.728 466.5,219.5C 427.416,211.873 388.082,204.873 348.5,198.5C 347.428,191.543 345.428,184.876 342.5,178.5C 343.097,177.861 343.93,177.528 345,177.5C 387.573,184.679 430.073,192.012 472.5,199.5 Z"/></g>
<g><path style="opacity:0.997" fill="#8c2fd5" d="M 137.5,183.5 C 178.277,191.353 219.277,198.687 260.5,205.5C 260.5,209.833 260.5,214.167 260.5,218.5C 213.474,210.607 166.474,202.607 119.5,194.5C 125.13,190.346 131.13,186.679 137.5,183.5 Z"/></g>
<g><path style="opacity:0.997" fill="#8631dc" d="M 119.5,194.5 C 166.474,202.607 213.474,210.607 260.5,218.5C 260.5,222.5 260.5,226.5 260.5,230.5C 208.537,221.617 156.537,212.951 104.5,204.5C 108.951,200.39 113.951,197.056 119.5,194.5 Z"/></g>
<g><path style="opacity:1" fill="#972bca" d="M 348.5,198.5 C 388.082,204.873 427.416,211.873 466.5,219.5C 462.154,225.174 456.488,228.841 449.5,230.5C 415.944,224.406 382.277,218.406 348.5,212.5C 348.5,207.833 348.5,203.167 348.5,198.5 Z"/></g>
<g><path style="opacity:1" fill="#a625bb" d="M 486.5,192.5 C 556.535,203.95 626.535,215.617 696.5,227.5C 697.403,230.391 697.736,233.391 697.5,236.5C 627.725,225.478 558.059,213.812 488.5,201.5C 487.824,202.602 487.158,203.602 486.5,204.5C 486.5,200.5 486.5,196.5 486.5,192.5 Z"/></g>
<g><path style="opacity:1" fill="#a126bf" d="M 697.5,236.5 C 696.701,239.43 696.368,242.43 696.5,245.5C 626.438,233.712 556.438,221.712 486.5,209.5C 486.5,207.833 486.5,206.167 486.5,204.5C 487.158,203.602 487.824,202.602 488.5,201.5C 558.059,213.812 627.725,225.478 697.5,236.5 Z"/></g>
<g><path style="opacity:0.998" fill="#7f34e2" d="M 104.5,204.5 C 156.537,212.951 208.537,221.617 260.5,230.5C 260.5,235.167 260.5,239.833 260.5,244.5C 203.597,235.461 146.931,225.794 90.5,215.5C 94.5873,211.078 99.2539,207.411 104.5,204.5 Z"/></g>
<g><path style="opacity:0.998" fill="#9d28c4" d="M 486.5,209.5 C 556.438,221.712 626.438,233.712 696.5,245.5C 696.693,249.566 696.36,253.566 695.5,257.5C 624.587,245.181 553.587,233.181 482.5,221.5C 483.849,217.411 485.182,213.411 486.5,209.5 Z"/></g>
<g><path style="opacity:1" fill="#b575e2" d="M 333.5,195.5 C 334.495,207.322 334.828,219.322 334.5,231.5C 326.167,231.5 317.833,231.5 309.5,231.5C 317.316,230.508 325.316,230.174 333.5,230.5C 333.5,222.167 333.5,213.833 333.5,205.5C 333.5,202.167 333.5,198.833 333.5,195.5 Z"/></g>
<g><path style="opacity:1" fill="#9333d2" d="M 348.5,212.5 C 382.277,218.406 415.944,224.406 449.5,230.5C 415.906,231.493 382.24,231.826 348.5,231.5C 348.5,225.167 348.5,218.833 348.5,212.5 Z"/></g>
<g><path style="opacity:1" fill="#8e30d4" d="M 275.5,195.5 C 294.764,199.044 314.098,202.378 333.5,205.5C 333.5,213.833 333.5,222.167 333.5,230.5C 325.316,230.174 317.316,230.508 309.5,231.5C 291.4,232.228 279.9,223.895 275,206.5C 274.19,202.642 274.357,198.976 275.5,195.5 Z"/></g>
<g><path style="opacity:0.997" fill="#7937e9" d="M 90.5,215.5 C 146.931,225.794 203.597,235.461 260.5,244.5C 260.5,248.5 260.5,252.5 260.5,256.5C 199.833,246.5 139.167,236.5 78.5,226.5C 81.8744,222.124 85.8744,218.458 90.5,215.5 Z"/></g>
<g><path style="opacity:0.999" fill="#982ac9" d="M 482.5,221.5 C 553.587,233.181 624.587,245.181 695.5,257.5C 695.492,260.545 695.159,263.545 694.5,266.5C 621.901,254.067 549.234,242.067 476.5,230.5C 478.533,227.477 480.533,224.477 482.5,221.5 Z"/></g>
<g><path style="opacity:0.998" fill="#7339ef" d="M 78.5,226.5 C 139.167,236.5 199.833,246.5 260.5,256.5C 260.5,260.833 260.5,265.167 260.5,269.5C 199.126,259.66 137.793,249.493 76.5,239C 73.8091,238.844 71.4758,238.011 69.5,236.5C 71.7881,232.544 74.7881,229.211 78.5,226.5 Z"/></g>
<g><path style="opacity:0.999" fill="#922dcf" d="M 476.5,230.5 C 549.234,242.067 621.901,254.067 694.5,266.5C 693.94,270.193 693.273,273.86 692.5,277.5C 616.773,265.823 541.106,253.157 465.5,239.5C 469.311,236.75 472.978,233.75 476.5,230.5 Z"/></g>
<g><path style="opacity:0.998" fill="#6d3cf5" d="M 69.5,236.5 C 71.4758,238.011 73.8091,238.844 76.5,239C 137.793,249.493 199.126,259.66 260.5,269.5C 260.5,273.5 260.5,277.5 260.5,281.5C 193.562,271.011 126.895,259.677 60.5,247.5C 62.7847,243.273 65.7847,239.607 69.5,236.5 Z"/></g>
<g><path style="opacity:0.998" fill="#8c2fd5" d="M 465.5,239.5 C 541.106,253.157 616.773,265.823 692.5,277.5C 691.5,282.167 690.5,286.833 689.5,291.5C 600.742,276.152 512.076,260.819 423.5,245.5C 432.173,245.666 440.84,245.5 449.5,245C 455.033,243.656 460.366,241.823 465.5,239.5 Z"/></g>
<g><path style="opacity:0.999" fill="#8532dc" d="M 423.5,245.5 C 512.076,260.819 600.742,276.152 689.5,291.5C 687.833,296.167 686.167,300.833 684.5,305.5C 572.43,286.711 460.43,267.711 348.5,248.5C 348.5,247.5 348.5,246.5 348.5,245.5C 373.5,245.5 398.5,245.5 423.5,245.5 Z"/></g>
<g><path style="opacity:0.999" fill="#7f34e3" d="M 348.5,248.5 C 460.43,267.711 572.43,286.711 684.5,305.5C 683.679,309.127 682.346,312.46 680.5,315.5C 569.727,297.26 459.06,278.593 348.5,259.5C 348.5,255.833 348.5,252.167 348.5,248.5 Z"/></g>
<g><path style="opacity:1" fill="#7c3ae8" d="M 333.5,245.5 C 333.5,253.5 333.5,261.5 333.5,269.5C 314.237,265.956 294.904,262.623 275.5,259.5C 275.5,263.833 275.5,268.167 275.5,272.5C 275.5,283.167 275.5,293.833 275.5,304.5C 274.339,281.906 274.173,258.573 275,234.5C 281.148,239.99 288.315,243.49 296.5,245C 308.829,245.5 321.162,245.667 333.5,245.5 Z"/></g>
<g><path style="opacity:0.998" fill="#6540fd" d="M 60.5,247.5 C 126.895,259.677 193.562,271.011 260.5,281.5C 260.5,289.5 260.5,297.5 260.5,305.5C 188.788,293.758 117.122,281.758 45.5,269.5C 49.7511,261.595 54.7511,254.262 60.5,247.5 Z"/></g>
<g><path style="opacity:1" fill="#7339ef" d="M 333.5,269.5 C 333.5,273.833 333.5,278.167 333.5,282.5C 314.173,279.168 294.84,275.834 275.5,272.5C 275.5,268.167 275.5,263.833 275.5,259.5C 294.904,262.623 314.237,265.956 333.5,269.5 Z"/></g>
<g><path style="opacity:0.999" fill="#7937e9" d="M 348.5,259.5 C 459.06,278.593 569.727,297.26 680.5,315.5C 679.618,319.593 677.951,323.26 675.5,326.5C 566.401,308.706 457.401,290.372 348.5,271.5C 348.5,267.5 348.5,263.5 348.5,259.5 Z"/></g>
<g><path style="opacity:0.998" fill="#5e47ff" d="M 45.5,269.5 C 117.122,281.758 188.788,293.758 260.5,305.5C 260.5,310.5 260.5,315.5 260.5,320.5C 186.524,307.837 112.524,295.171 38.5,282.5C 40.579,278.007 42.9123,273.674 45.5,269.5 Z"/></g>
<g><path style="opacity:1" fill="#6c3cf6" d="M 275.5,272.5 C 294.84,275.834 314.173,279.168 333.5,282.5C 333.5,286.167 333.5,289.833 333.5,293.5C 323.652,293.173 313.986,293.506 304.5,294.5C 298.989,294.205 293.656,295.038 288.5,297C 284.003,299.356 279.67,301.856 275.5,304.5C 275.5,293.833 275.5,283.167 275.5,272.5 Z"/></g>
<g><path style="opacity:0.999" fill="#733aef" d="M 348.5,271.5 C 457.401,290.372 566.401,308.706 675.5,326.5C 673.926,331.32 671.593,335.653 668.5,339.5C 590.856,325.504 513.189,312.504 435.5,300.5C 430.515,297.85 425.182,296.017 419.5,295C 395.836,294.5 372.169,294.333 348.5,294.5C 348.5,286.833 348.5,279.167 348.5,271.5 Z"/></g>
<g><path style="opacity:0.998" fill="#594eff" d="M 38.5,282.5 C 112.524,295.171 186.524,307.837 260.5,320.5C 260.5,325.5 260.5,330.5 260.5,335.5C 184.501,322.834 108.501,310.167 32.5,297.5C 34.1066,292.348 36.1066,287.348 38.5,282.5 Z"/></g>
<g><path style="opacity:1" fill="#936cf6" d="M 333.5,245.5 C 334.496,261.658 334.83,277.991 334.5,294.5C 324.5,294.5 314.5,294.5 304.5,294.5C 313.986,293.506 323.652,293.173 333.5,293.5C 333.5,289.833 333.5,286.167 333.5,282.5C 333.5,278.167 333.5,273.833 333.5,269.5C 333.5,261.5 333.5,253.5 333.5,245.5 Z"/></g>
<g><path style="opacity:0.999" fill="#5454ff" d="M 32.5,297.5 C 108.501,310.167 184.501,322.834 260.5,335.5C 260.5,340.5 260.5,345.5 260.5,350.5C 182.99,336.748 105.324,323.748 27.5,311.5C 28.3982,306.466 30.0649,301.799 32.5,297.5 Z"/></g>
<g><path style="opacity:0.999" fill="#6d3cf5" d="M 668.5,339.5 C 667.502,343.505 665.502,346.839 662.5,349.5C 592.635,338.106 522.802,326.439 453,314.5C 451.93,314.528 451.097,314.861 450.5,315.5C 446.5,309.5 441.5,304.5 435.5,300.5C 513.189,312.504 590.856,325.504 668.5,339.5 Z"/></g>
<g><path style="opacity:0.999" fill="#4f5aff" d="M 27.5,311.5 C 105.324,323.748 182.99,336.748 260.5,350.5C 260.5,354.833 260.5,359.167 260.5,363.5C 181.631,350.245 102.964,336.578 24.5,322.5C 24.9257,318.573 25.9257,314.907 27.5,311.5 Z"/></g>
<g><path style="opacity:1" fill="#5f47ff" d="M 333.5,308.5 C 333.5,316.5 333.5,324.5 333.5,332.5C 315.249,329.794 297.249,326.461 279.5,322.5C 283.778,315.845 289.778,311.345 297.5,309C 309.495,308.5 321.495,308.333 333.5,308.5 Z"/></g>
<g><path style="opacity:1" fill="#6243fe" d="M 439.5,350.5 C 409.223,345.176 378.889,340.176 348.5,335.5C 348.5,326.5 348.5,317.5 348.5,308.5C 373.219,308.039 397.885,308.539 422.5,310C 440.164,318.509 445.831,332.009 439.5,350.5 Z"/></g>
<g><path style="opacity:0.998" fill="#6540fd" d="M 662.5,349.5 C 658.143,357.55 652.809,364.884 646.5,371.5C 583.308,360.19 519.975,349.524 456.5,339.5C 456.146,331.055 454.146,323.055 450.5,315.5C 451.097,314.861 451.93,314.528 453,314.5C 522.802,326.439 592.635,338.106 662.5,349.5 Z"/></g>
<g><path style="opacity:0.999" fill="#4b60ff" d="M 24.5,322.5 C 102.964,336.578 181.631,350.245 260.5,363.5C 260.5,368.167 260.5,372.833 260.5,377.5C 180.375,364.341 100.375,350.674 20.5,336.5C 21.5391,331.666 22.8725,326.999 24.5,322.5 Z"/></g>
<g><path style="opacity:1" fill="#594eff" d="M 279.5,322.5 C 297.249,326.461 315.249,329.794 333.5,332.5C 333.666,337.844 333.499,343.177 333,348.5C 313.949,344.686 294.783,341.352 275.5,338.5C 275.5,336.5 275.5,334.5 275.5,332.5C 275.872,328.703 277.206,325.37 279.5,322.5 Z"/></g>
<g><path style="opacity:1" fill="#5a4dff" d="M 348.5,335.5 C 378.889,340.176 409.223,345.176 439.5,350.5C 437.605,355.063 434.605,358.73 430.5,361.5C 403.1,357.6 375.767,353.267 348.5,348.5C 348.5,344.167 348.5,339.833 348.5,335.5 Z"/></g>
<g><path style="opacity:0.998" fill="#4666ff" d="M 20.5,336.5 C 100.375,350.674 180.375,364.341 260.5,377.5C 260.5,382.833 260.5,388.167 260.5,393.5C 179.879,379.619 99.2126,365.952 18.5,352.5C 19.26,347.18 19.9267,341.847 20.5,336.5 Z"/></g>
<g><path style="opacity:1" fill="#5758ff" d="M 333.5,308.5 C 334.497,327.993 334.83,347.66 334.5,367.5C 321.829,367.667 309.162,367.5 296.5,367C 280.441,360.818 273.441,349.318 275.5,332.5C 275.5,334.5 275.5,336.5 275.5,338.5C 294.783,341.352 313.949,344.686 333,348.5C 333.499,343.177 333.666,337.844 333.5,332.5C 333.5,324.5 333.5,316.5 333.5,308.5 Z"/></g>
<g><path style="opacity:0.998" fill="#5e47ff" d="M 456.5,339.5 C 519.975,349.524 583.308,360.19 646.5,371.5C 643.208,376.46 639.208,380.793 634.5,384.5C 575.799,373.437 516.799,363.104 457.5,353.5C 455.97,353.36 454.97,352.693 454.5,351.5C 455.167,347.5 455.833,343.5 456.5,339.5 Z"/></g>
<g><path style="opacity:1" fill="#5553ff" d="M 348.5,348.5 C 375.767,353.267 403.1,357.6 430.5,361.5C 427.173,363.83 423.507,365.663 419.5,367C 395.836,367.5 372.169,367.667 348.5,367.5C 348.5,361.167 348.5,354.833 348.5,348.5 Z"/></g>
<g><path style="opacity:0.998" fill="#416dff" d="M 18.5,352.5 C 99.2126,365.952 179.879,379.619 260.5,393.5C 260.5,398.167 260.5,402.833 260.5,407.5C 179.305,394.246 98.3046,380.246 17.5,365.5C 17.7395,361.158 18.0728,356.824 18.5,352.5 Z"/></g>
<g><path style="opacity:0.999" fill="#594eff" d="M 454.5,351.5 C 454.97,352.693 455.97,353.36 457.5,353.5C 516.799,363.104 575.799,373.437 634.5,384.5C 630.069,389.54 625.069,393.873 619.5,397.5C 561.867,387.04 504.2,376.707 446.5,366.5C 449.929,361.856 452.596,356.856 454.5,351.5 Z"/></g>
<g><path style="opacity:0.997" fill="#5454ff" d="M 446.5,366.5 C 504.2,376.707 561.867,387.04 619.5,397.5C 614.891,402.471 609.557,406.471 603.5,409.5C 603.389,408.883 603.056,408.383 602.5,408C 546.489,398.564 490.489,389.064 434.5,379.5C 432.97,379.36 431.97,378.693 431.5,377.5C 437.033,374.566 442.033,370.9 446.5,366.5 Z"/></g>
<g><path style="opacity:0.999" fill="#3c73ff" d="M 17.5,365.5 C 98.3046,380.246 179.305,394.246 260.5,407.5C 260.5,412.167 260.5,416.833 260.5,421.5C 179.519,408.059 98.5188,394.725 17.5,381.5C 17.5,376.167 17.5,370.833 17.5,365.5 Z"/></g>
<g><path style="opacity:0.998" fill="#505aff" d="M 431.5,377.5 C 431.97,378.693 432.97,379.36 434.5,379.5C 490.489,389.064 546.489,398.564 602.5,408C 603.056,408.383 603.389,408.883 603.5,409.5C 599.21,412.985 594.543,415.985 589.5,418.5C 518.478,406.885 447.478,395.052 376.5,383C 390.339,382.831 404.006,382.331 417.5,381.5C 422.373,380.783 427.04,379.449 431.5,377.5 Z"/></g>
<g><path style="opacity:1" fill="#4766ff" d="M 275.5,371.5 C 282.692,377.567 291.026,380.9 300.5,381.5C 311.321,382.495 322.321,382.828 333.5,382.5C 333.5,390.167 333.5,397.833 333.5,405.5C 314.096,402.377 294.763,399.044 275.5,395.5C 275.5,387.5 275.5,379.5 275.5,371.5 Z"/></g>
<g><path style="opacity:0.999" fill="#3978ff" d="M 17.5,381.5 C 98.5188,394.725 179.519,408.059 260.5,421.5C 260.5,423.833 260.5,426.167 260.5,428.5C 179.623,414.298 98.6228,400.632 17.5,387.5C 17.5,385.5 17.5,383.5 17.5,381.5 Z"/></g>
<g><path style="opacity:1" fill="#778aff" d="M 300.5,381.5 C 311.833,381.5 323.167,381.5 334.5,381.5C 334.5,389.5 334.5,397.5 334.5,405.5C 334.167,405.5 333.833,405.5 333.5,405.5C 333.5,397.833 333.5,390.167 333.5,382.5C 322.321,382.828 311.321,382.495 300.5,381.5 Z"/></g>
<g><path style="opacity:0.997" fill="#4c61ff" d="M 417.5,381.5 C 404.006,382.331 390.339,382.831 376.5,383C 447.478,395.052 518.478,406.885 589.5,418.5C 582.671,422.749 575.671,426.749 568.5,430.5C 495.368,417.422 422.035,404.755 348.5,392.5C 348.5,388.833 348.5,385.167 348.5,381.5C 371.5,381.5 394.5,381.5 417.5,381.5 Z"/></g>
<g><path style="opacity:0.998" fill="#377bff" d="M 17.5,387.5 C 98.6228,400.632 179.623,414.298 260.5,428.5C 260.5,430.833 260.5,433.167 260.5,435.5C 179.941,421.407 99.2746,407.74 18.5,394.5C 17.5318,392.393 17.1984,390.059 17.5,387.5 Z"/></g>
<g><path style="opacity:0.998" fill="#4666ff" d="M 348.5,392.5 C 422.035,404.755 495.368,417.422 568.5,430.5C 562.666,434.921 556.332,438.588 549.5,441.5C 482.487,430.609 415.487,419.609 348.5,408.5C 348.5,403.167 348.5,397.833 348.5,392.5 Z"/></g>
<g><path style="opacity:0.999" fill="#337fff" d="M 18.5,394.5 C 99.2746,407.74 179.941,421.407 260.5,435.5C 260.5,440.167 260.5,444.833 260.5,449.5C 180.208,435.908 99.8743,422.575 19.5,409.5C 18.8363,404.527 18.5029,399.527 18.5,394.5 Z"/></g>
<g><path style="opacity:1" fill="#416dff" d="M 275.5,395.5 C 294.763,399.044 314.096,402.377 333.5,405.5C 333.5,410.167 333.5,414.833 333.5,419.5C 314.169,416.501 294.836,413.501 275.5,410.5C 275.5,405.5 275.5,400.5 275.5,395.5 Z"/></g>
<g><path style="opacity:0.996" fill="#416dff" d="M 348.5,408.5 C 415.487,419.609 482.487,430.609 549.5,441.5C 542.704,446.07 535.704,450.403 528.5,454.5C 525.34,452.496 521.673,451.329 517.5,451C 461.154,441.498 404.82,431.998 348.5,422.5C 348.5,417.833 348.5,413.167 348.5,408.5 Z"/></g>
<g><path style="opacity:0.999" fill="#2f86ff" d="M 19.5,409.5 C 99.8743,422.575 180.208,435.908 260.5,449.5C 260.5,454.833 260.5,460.167 260.5,465.5C 181.308,451.524 101.975,438.19 22.5,425.5C 21.7504,420.087 20.7504,414.754 19.5,409.5 Z"/></g>
<g><path style="opacity:0.997" fill="#3c73ff" d="M 348.5,422.5 C 404.82,431.998 461.154,441.498 517.5,451C 521.673,451.329 525.34,452.496 528.5,454.5C 522.33,458.419 515.997,462.086 509.5,465.5C 509.389,464.883 509.056,464.383 508.5,464C 455.089,455.017 401.756,445.85 348.5,436.5C 348.5,431.833 348.5,427.167 348.5,422.5 Z"/></g>
<g><path style="opacity:0.998" fill="#2a8cff" d="M 22.5,425.5 C 101.975,438.19 181.308,451.524 260.5,465.5C 260.5,470.167 260.5,474.833 260.5,479.5C 182.89,466.176 105.223,453.176 27.5,440.5C 25.3846,435.729 23.7179,430.729 22.5,425.5 Z"/></g>
<g><path style="opacity:0.999" fill="#2691ff" d="M 27.5,440.5 C 105.223,453.176 182.89,466.176 260.5,479.5C 260.993,481.806 261.326,484.139 261.5,486.5C 184.063,473.927 106.73,460.927 29.5,447.5C 28.4336,445.299 27.767,442.965 27.5,440.5 Z"/></g>
<g><path style="opacity:0.997" fill="#387aff" d="M 348.5,436.5 C 401.756,445.85 455.089,455.017 508.5,464C 509.056,464.383 509.389,464.883 509.5,465.5C 503.998,469.085 498.331,472.419 492.5,475.5C 444.84,466.111 396.84,457.778 348.5,450.5C 348.5,445.833 348.5,441.167 348.5,436.5 Z"/></g>
<g><path style="opacity:0.999" fill="#2494ff" d="M 29.5,447.5 C 106.73,460.927 184.063,473.927 261.5,486.5C 262.73,488.297 263.396,490.297 263.5,492.5C 263.631,493.376 263.298,494.043 262.5,494.5C 185.874,481.285 109.207,468.285 32.5,455.5C 31.129,453.064 30.129,450.397 29.5,447.5 Z"/></g>
<g><path style="opacity:0.996" fill="#347fff" d="M 348.5,450.5 C 396.84,457.778 444.84,466.111 492.5,475.5C 486.33,479.419 479.997,483.086 473.5,486.5C 432.055,478.647 390.388,471.313 348.5,464.5C 348.5,459.833 348.5,455.167 348.5,450.5 Z"/></g>
<g><path style="opacity:0.998" fill="#2199ff" d="M 32.5,455.5 C 109.207,468.285 185.874,481.285 262.5,494.5C 263.298,494.043 263.631,493.376 263.5,492.5C 266.824,500.145 271.824,506.478 278.5,511.5C 278.265,512.097 277.765,512.43 277,512.5C 197.91,498.68 118.744,485.346 39.5,472.5C 36.893,466.952 34.5597,461.285 32.5,455.5 Z"/></g>
<g><path style="opacity:0.995" fill="#2f85ff" d="M 348.5,464.5 C 390.388,471.313 432.055,478.647 473.5,486.5C 467.338,490.416 461.005,494.083 454.5,497.5C 419.164,491.833 383.831,486.166 348.5,480.5C 348.5,475.167 348.5,469.833 348.5,464.5 Z"/></g>
<g><path style="opacity:1" fill="#378fff" d="M 275.5,371.5 C 275.5,379.5 275.5,387.5 275.5,395.5C 275.5,400.5 275.5,405.5 275.5,410.5C 275.5,415.167 275.5,419.833 275.5,424.5C 275.5,428.833 275.5,433.167 275.5,437.5C 275.5,442.5 275.5,447.5 275.5,452.5C 274.919,457.975 275.586,463.142 277.5,468C 296.199,471.061 314.865,474.228 333.5,477.5C 333.5,472.167 333.5,466.833 333.5,461.5C 333.5,456.833 333.5,452.167 333.5,447.5C 333.5,443.167 333.5,438.833 333.5,434.5C 333.5,429.5 333.5,424.5 333.5,419.5C 333.5,414.833 333.5,410.167 333.5,405.5C 333.833,405.5 334.167,405.5 334.5,405.5C 334.667,430.502 334.5,455.502 334,480.5C 332.874,487.428 329.708,493.095 324.5,497.5C 309.203,494.907 293.869,492.574 278.5,490.5C 277.185,487.588 276.018,484.588 275,481.5C 274.17,444.095 274.337,407.429 275.5,371.5 Z"/></g>
<g><path style="opacity:1" fill="#2f86ff" d="M 275.5,452.5 C 294.799,455.717 314.133,458.717 333.5,461.5C 333.5,466.833 333.5,472.167 333.5,477.5C 314.865,474.228 296.199,471.061 277.5,468C 275.586,463.142 274.919,457.975 275.5,452.5 Z"/></g>
<g><path style="opacity:1" fill="#337fff" d="M 275.5,437.5 C 294.788,441.048 314.121,444.381 333.5,447.5C 333.5,452.167 333.5,456.833 333.5,461.5C 314.133,458.717 294.799,455.717 275.5,452.5C 275.5,447.5 275.5,442.5 275.5,437.5 Z"/></g>
<g><path style="opacity:1" fill="#387aff" d="M 275.5,424.5 C 294.84,427.834 314.173,431.168 333.5,434.5C 333.5,438.833 333.5,443.167 333.5,447.5C 314.121,444.381 294.788,441.048 275.5,437.5C 275.5,433.167 275.5,428.833 275.5,424.5 Z"/></g>
<g><path style="opacity:1" fill="#3c73ff" d="M 275.5,410.5 C 294.836,413.501 314.169,416.501 333.5,419.5C 333.5,424.5 333.5,429.5 333.5,434.5C 314.173,431.168 294.84,427.834 275.5,424.5C 275.5,419.833 275.5,415.167 275.5,410.5 Z"/></g>
<g><path style="opacity:0.998" fill="#1c9fff" d="M 39.5,472.5 C 118.744,485.346 197.91,498.68 277,512.5C 277.765,512.43 278.265,512.097 278.5,511.5C 290.046,519.348 302.713,521.681 316.5,518.5C 342.409,523.153 368.409,527.819 394.5,532.5C 388.372,536.736 382.038,540.736 375.5,544.5C 373.524,542.989 371.191,542.156 368.5,542C 261.874,523.84 155.207,506.007 48.5,488.5C 45.5,483.167 42.5,477.833 39.5,472.5 Z"/></g>
<g><path style="opacity:0.996" fill="#2a8cff" d="M 348.5,480.5 C 383.831,486.166 419.164,491.833 454.5,497.5C 448.118,501.863 441.451,505.863 434.5,509.5C 405.36,504.031 376.026,498.864 346.5,494C 345.944,493.617 345.611,493.117 345.5,492.5C 346.503,488.479 347.503,484.479 348.5,480.5 Z"/></g>
<g><path style="opacity:1" fill="#2a96ff" d="M 278.5,490.5 C 293.869,492.574 309.203,494.907 324.5,497.5C 316.671,504.934 307.338,507.434 296.5,505C 288.549,502.545 282.549,497.712 278.5,490.5 Z"/></g>
<g><path style="opacity:0.997" fill="#17a5ff" d="M 48.5,488.5 C 155.207,506.007 261.874,523.84 368.5,542C 371.191,542.156 373.524,542.989 375.5,544.5C 370.167,547.5 364.833,550.5 359.5,553.5C 259.216,536.508 158.882,519.842 58.5,503.5C 54.9317,498.709 51.5984,493.709 48.5,488.5 Z"/></g>
<g><path style="opacity:0.993" fill="#2593ff" d="M 345.5,492.5 C 345.611,493.117 345.944,493.617 346.5,494C 376.026,498.864 405.36,504.031 434.5,509.5C 428.366,513.404 422.032,517.071 415.5,520.5C 389.916,515.791 364.249,511.291 338.5,507C 337.944,506.617 337.611,506.117 337.5,505.5C 340.432,501.298 343.098,496.965 345.5,492.5 Z"/></g>
<g><path style="opacity:0.991" fill="#2199ff" d="M 337.5,505.5 C 337.611,506.117 337.944,506.617 338.5,507C 364.249,511.291 389.916,515.791 415.5,520.5C 408.996,525.255 401.996,529.255 394.5,532.5C 368.409,527.819 342.409,523.153 316.5,518.5C 324.236,515.46 331.236,511.127 337.5,505.5 Z"/></g>
<g><path style="opacity:0.998" fill="#12abff" d="M 58.5,503.5 C 158.882,519.842 259.216,536.508 359.5,553.5C 353.366,557.404 347.032,561.071 340.5,564.5C 250.811,549.629 161.144,534.629 71.5,519.5C 66.4393,514.771 62.106,509.438 58.5,503.5 Z"/></g>
<g><path style="opacity:0.993" fill="#0eb1ff" d="M 71.5,519.5 C 161.144,534.629 250.811,549.629 340.5,564.5C 333.097,569.535 325.097,573.535 316.5,576.5C 242.01,563.891 167.51,551.224 93,538.5C 91.9302,538.528 91.0968,538.861 90.5,539.5C 83.4639,533.465 77.1305,526.798 71.5,519.5 Z"/></g>
<g><path style="opacity:0.993" fill="#09b8ff" d="M 90.5,539.5 C 91.0968,538.861 91.9302,538.528 93,538.5C 167.51,551.224 242.01,563.891 316.5,576.5C 307.643,580.917 298.31,584.251 288.5,586.5C 230.346,576.196 172.013,566.196 113.5,556.5C 105.007,552.015 97.3406,546.349 90.5,539.5 Z"/></g>
<g><path style="opacity:0.984" fill="#04beff" d="M 113.5,556.5 C 172.013,566.196 230.346,576.196 288.5,586.5C 234.375,600.402 182.375,594.569 132.5,569C 125.759,565.307 119.426,561.14 113.5,556.5 Z"/></g>
</svg>
